# xmcd CD database file
#
# Track frame offsets:
#	150
#	15981
#	41455
#	58640
#	80726
#	117688
#	131973
#	155627
#	175270
#	185215
#	205532
#
# Disc length: 2935 seconds
#
# Revision: 0
# Processed by: cddbd v1.5.2PL0 Copyright (c) Steve Scherf et al.
# Submitted via: CDex 1.70beta2
#
DISCID=9b0b750b
DTITLE=Joe Bonamassa - Slow Gin
DYEAR=1900
DGENRE=Blues
TTITLE0=Ball Peen Hammer
TTITLE1=One Of These Days
TTITLE2=Seagull
TTITLE3=Dirt In My Pocket
TTITLE4=Sloe Gin
TTITLE5=Another Kind Of Love
TTITLE6=Around The Bend
TTITLE7=Black Night
TTITLE8=Jelly Roll
TTITLE9=Richmond
TTITLE10=India
EXTD=
EXTT0=
EXTT1=
EXTT2=
EXTT3=
EXTT4=
EXTT5=
EXTT6=
EXTT7=
EXTT8=
EXTT9=
EXTT10=
PLAYORDER=
